<svg width="285" height="322" viewBox="0 0 285 322" fill="none" xmlns="http://www.w3.org/2000/svg">
<path d="M183.105 102.956C129.445 78.8825 117.914 52.3361 118.855 44.1715C104.734 59.5676 65.2137 78.6525 68.0196 143.546C72.2558 241.521 169.69 231.723 169.69 231.723C169.69 231.723 149.757 200.821 140.742 179.237C131.732 157.662 123.797 121.852 123.797 121.852C123.797 121.852 162.63 219.126 197.226 241.521C231.822 263.915 242.977 283.23 236.764 298.906C230.551 314.582 216.76 320.834 210.641 322C213.935 318.501 218.548 308.983 210.641 298.906C200.756 286.309 176.044 282.11 116.031 279.311C68.0197 277.072 -4.70291 217.727 0.239277 129.549C3.804 65.9486 73.6679 -2.71646 145.685 0.0828206C217.701 2.8821 282.657 65.1661 284.069 129.549C285.481 193.933 255.61 232.729 241.001 241.521C221.231 253.418 188.754 235.222 194.402 208.629C196.747 197.587 250.179 133.049 183.105 102.956Z" fill="url(#paint0_linear_19_4716)"/>
<defs>
<linearGradient id="paint0_linear_19_4716" x1="236.525" y1="49.6872" x2="73.7152" y2="244.259" gradientUnits="userSpaceOnUse">
<stop stop-color="#8FC622"/>
<stop offset="1" stop-color="#3A5B22"/>
</linearGradient>
</defs>
</svg>
